<svg xmlns="http://www.w3.org/2000/svg" viewBox="0 0 64 64">
  <defs>
    <linearGradient id="g" x1="0" y1="0" x2="1" y2="1">
      <stop offset="0" stop-color="#ff5c7a" />
      <stop offset="1" stop-color="#6ca8ff" />
    </linearGradient>
  </defs>
  <rect width="64" height="64" rx="14" fill="#1d1030" />
  <path d="M32 52c-1.4 0-2.6-0.5-3.8-1.2-8-5.4-16.9-12.5-24.4-20.8-6.1-6.7-2.6-16.9 6.6-19.9 7.4-2.5 15.5 1.2 21.6 8 6.1-6.8 14.2-10.5 21.6-8 9.2 3 12.7 13.2 6.6 19.9-7.5 8.3-16.4 15.4-24.4 20.8-1.2 0.8-2.4 1.2-3.8 1.2z" fill="url(#g)" />
  <circle cx="45" cy="16" r="4" fill="#ffffff" opacity="0.7" />
</svg>
